<svg width="56" height="56" viewBox="0 0 56 56" fill="none" xmlns="http://www.w3.org/2000/svg">
<g clip-path="url(#clip0_1_251)">
<rect opacity="0.655535" x="-9.5" y="-9.5" width="74" height="74" rx="37" stroke="#000001"/>
<rect width="56" height="56" rx="28" fill="#000001"/>
<path fill-rule="evenodd" clip-rule="evenodd" d="M38.2851 22.5451C38.7399 22.5451 39.1761 22.7232 39.4977 23.0402C39.8193 23.3573 40 23.7872 40 24.2355V33.9468C40 34.3951 39.8193 34.825 39.4977 35.142C39.1761 35.459 38.7399 35.6371 38.2851 35.6371H37.3899V40L33.3153 35.6363H26.8819C26.4271 35.6363 25.9909 35.4582 25.6693 35.1412C25.3477 34.8242 25.167 34.3942 25.167 33.9459V32.3637H33.8041C34.4863 32.3637 35.1406 32.0966 35.623 31.6211C36.1054 31.1456 36.3764 30.5006 36.3764 29.8281V22.5451H38.2851ZM32.6182 16C33.073 16 33.5092 16.1781 33.8308 16.4951C34.1524 16.8121 34.3331 17.2421 34.3331 17.6904V28.4919C34.3331 28.7139 34.2888 28.9337 34.2026 29.1388C34.1164 29.3439 33.9901 29.5302 33.8308 29.6872C33.6716 29.8441 33.4825 29.9687 33.2745 30.0536C33.0664 30.1386 32.8434 30.1823 32.6182 30.1823H25.167L20.0737 35.6363V30.1823H17.7149C17.2601 30.1823 16.8239 30.0042 16.5023 29.6872C16.1807 29.3702 16 28.9402 16 28.4919V17.6904C16 17.2421 16.1807 16.8121 16.5023 16.4951C16.8239 16.1781 17.2601 16 17.7149 16H32.6182Z" fill="white"/>
</g>
<defs>
<clipPath id="clip0_1_251">
<rect width="56" height="56" rx="28" fill="white"/>
</clipPath>
</defs>
</svg>
